<?xml version="1.0" encoding="UTF-8"?><svg xmlns="http://www.w3.org/2000/svg" viewBox="0 0 500 500"><g id="BACKGROUND"><rect width="500" height="500" style="fill:#fff;"/></g><g id="OBJECTS"><path d="M281.49,263.16c-24.92,0-52.66-.67-62.42-1.36-5.73-.41-12.23-.87-17.92-3.65-10.15-4.95-14.12-23.45-14.28-24.24-.66-4.66-2.21-13.81-4.02-24.4-2.99-17.54-6.38-37.41-6.9-44.21-.07-.9-.19-1.85-.31-2.83-.39-3.13-.84-6.68,.22-9.69,4.11-11.64,53.03-9.86,58.41-7.98,11.26,3.92,13.37,12.83,15.61,22.25l.33,1.39c1.5,6.26,7.84,46.6,9.58,58.9,.13,.9-.5,1.73-1.4,1.86-.91,.13-1.73-.5-1.86-1.4-1.91-13.43-8.15-52.86-9.53-58.59l-.33-1.4c-2.2-9.26-3.93-16.57-13.48-19.9-5.71-1.99-51.31-2.27-54.22,5.97-.81,2.28-.43,5.28-.06,8.18,.13,1.03,.26,2.04,.33,2.99,.5,6.64,4.03,27.3,6.86,43.9,1.81,10.61,3.37,19.78,4.02,24.39,.02,.07,3.79,17.6,12.48,21.84,5.11,2.5,11.01,2.92,16.71,3.32,16.88,1.2,87.73,2.33,103.93,.04,2-.28,4.23-.7,5.48-2.05,1.32-1.42,1.5-3.8,1.5-6.15,0-3.5-.25-7.12-2-9.9-3.63-5.75-11.98-6.14-19.66-5.76-3.84,.19-22.63,.37-42.52,.56-18.98,.18-38.61,.37-42.39,.56-4.27,.21-8.69,.43-12.63-3.37-2.5-2.41-3.47-5.85-4.25-8.61-.02-.06-.03-.12-.04-.18l-11.49-68.46c-.15-.9,.46-1.75,1.35-1.9,.91-.15,1.75,.46,1.9,1.35l11.48,68.37c.7,2.48,1.51,5.27,3.34,7.05,2.72,2.62,5.67,2.67,10.19,2.45,3.84-.19,22.63-.37,42.52-.56,18.98-.18,38.61-.37,42.39-.56,8.12-.4,18.04,.07,22.6,7.3,2.2,3.48,2.51,7.66,2.51,11.65,0,3.03-.28,6.14-2.37,8.4-1.99,2.15-4.88,2.71-7.44,3.07-6.95,.98-23.81,1.35-42.21,1.35Z"/><path d="M220.47,175.62c-.79,0-1.49-.57-1.62-1.37l-.91-5.43c-.15-.9,.46-1.75,1.35-1.9,.91-.15,1.75,.45,1.9,1.35l.91,5.43c.15,.9-.46,1.75-1.35,1.9-.09,.02-.18,.02-.27,.02Z" style="fill:#010101;"/><path d="M235.3,175.62c-.79,0-1.49-.57-1.62-1.37l-.91-5.43c-.15-.9,.46-1.75,1.35-1.9,.91-.15,1.75,.45,1.9,1.35l.91,5.43c.15,.9-.46,1.75-1.35,1.9-.09,.02-.18,.02-.27,.02Z" style="fill:#010101;"/><path d="M224.48,203.33c-.79,0-1.49-.57-1.62-1.37l-.91-5.43c-.15-.9,.46-1.75,1.35-1.9,.91-.15,1.75,.46,1.9,1.35l.91,5.43c.15,.9-.46,1.75-1.35,1.9-.09,.02-.18,.02-.27,.02Z" style="fill:#010101;"/><path d="M239.3,203.33c-.79,0-1.49-.57-1.62-1.37l-.91-5.43c-.15-.9,.46-1.75,1.35-1.9,.9-.15,1.74,.46,1.9,1.35l.91,5.43c.15,.9-.46,1.75-1.35,1.9-.09,.02-.18,.02-.27,.02Z" style="fill:#010101;"/><path d="M251.12,262.88c-.87,0-1.6-.69-1.64-1.57-.04-.91,.66-1.68,1.57-1.72,1.7-.08,4.38-.12,7.21-.16,3.82-.06,8.14-.12,9.4-.3,2-.28,4.23-.69,5.49-2.04,1.32-1.41,1.49-3.77,1.49-6.11,0-3.48-.25-7.08-2-9.84-3.63-5.72-11.97-6.1-19.66-5.73-.92,.02-1.68-.66-1.73-1.56-.04-.91,.66-1.68,1.56-1.73,8.13-.39,18.04,.07,22.6,7.26,2.2,3.47,2.51,7.62,2.51,11.6,0,3.01-.28,6.11-2.38,8.36-1.99,2.13-4.88,2.7-7.44,3.06-1.46,.21-5.52,.27-9.81,.33-2.81,.04-5.46,.08-7.11,.16-.03,0-.05,0-.08,0Z" style="fill:#010101;"/><path d="M319.72,235.24c-.17,0-.33-.03-.5-.08-3.31-1.05-5.9-3.93-6.59-7.34-.66-3.26,.4-6.45,1.52-9.14l.54-1.26c.91-2.13,1.78-4.14,1.97-6.23,.19-2.01-.49-4.62-2.41-5.58-.65-.33-1.44-.47-2.43-.6-2.32-.29-4.65-.17-7.11-.05-1.28,.07-2.56,.13-3.84,.14l-4.33,.04c-2.51,.02-5.03,.05-7.54,.05-11.58-.01-23.16-.03-34.73-.06-.91,0-1.65-.74-1.64-1.65,0-.91,.74-1.64,1.65-1.64h0c11.58,.02,23.15,.04,34.73,.06,2.5,0,5-.02,7.5-.05l4.34-.04c1.24,0,2.47-.07,3.69-.13,2.5-.13,5.08-.26,7.68,.07,1.15,.14,2.36,.35,3.49,.92,3.32,1.66,4.51,5.63,4.21,8.83-.24,2.61-1.25,4.96-2.22,7.23l-.52,1.23c-.93,2.23-1.81,4.84-1.33,7.22,.45,2.22,2.2,4.17,4.36,4.86,.87,.28,1.35,1.2,1.07,2.07-.22,.7-.87,1.15-1.57,1.15Z" style="fill:#010101;"/><path d="M310.01,193.27h-37.21c-.49,0-.95-.22-1.27-.59-.31-.38-.44-.87-.35-1.35l6.59-35.3c.15-.78,.83-1.34,1.62-1.34h24.03c.79,0,1.47,.57,1.62,1.34l6.59,35.3c.09,.48-.04,.98-.35,1.35-.31,.38-.78,.59-1.27,.59Zm-35.22-3.29h33.24l-5.97-32.01h-21.29l-5.97,32.01Z" style="fill:#010101;"/><path d="M291.55,199.58c-.83,0-1.5-.18-1.5-.41v-8.79c0-.23,.67-.41,1.5-.41s1.5,.18,1.5,.41v8.79c0,.23-.67,.41-1.5,.41Z" style="fill:#010101;"/><path d="M202.17,295.01c-.16,0-.32-.02-.48-.07-.87-.26-1.36-1.18-1.1-2.05l9.99-32.91c.26-.87,1.17-1.36,2.06-1.1,.87,.26,1.36,1.18,1.1,2.05l-9.99,32.91c-.22,.71-.87,1.17-1.58,1.17Z" style="fill:#010101;"/><path d="M267.31,295.01c-.71,0-1.36-.46-1.58-1.17l-9.47-31.62c-.26-.87,.23-1.79,1.1-2.05,.87-.26,1.79,.23,2.05,1.1l9.47,31.62c.26,.87-.23,1.79-1.1,2.05-.16,.05-.32,.07-.47,.07Z" style="fill:#010101;"/><path d="M256.7,295.01c-.16,0-.33-.02-.5-.08-.87-.27-1.35-1.2-1.07-2.07l9.99-31.62c.27-.87,1.19-1.35,2.07-1.07,.87,.27,1.35,1.2,1.07,2.07l-9.99,31.62c-.22,.7-.87,1.15-1.57,1.15Z" style="fill:#010101;"/><path d="M321.84,295.01c-.71,0-1.36-.46-1.58-1.17l-9.47-31.62c-.26-.87,.23-1.79,1.1-2.05,.87-.26,1.79,.23,2.05,1.1l9.47,31.62c.26,.87-.23,1.79-1.1,2.05-.16,.05-.32,.07-.47,.07Z" style="fill:#010101;"/><path d="M176.66,270.26c-5.02,0-9.95-2.23-13.54-6.15-3.64-3.96-7.7-11.54-6.38-25.12,1.27-13.1,9.7-27.09,17-34.55,.32-.33,.78-.51,1.23-.49,.46,.01,.89,.22,1.19,.57l4.81,5.56c.59,.69,.52,1.73-.17,2.32-.68,.59-1.73,.52-2.32-.17l-3.61-4.18c-6.6,7.3-13.73,19.67-14.85,31.25-1.2,12.38,2.35,19.11,5.53,22.58,2.97,3.24,7.02,5.08,11.12,5.08,.05,0,.11,0,.17,0,5.98-.07,11.4-7.1,13.33-12.07,.33-.85,1.29-1.26,2.13-.94,.85,.33,1.27,1.28,.94,2.13-2.2,5.64-8.37,14.07-16.36,14.17-.07,0-.14,0-.2,0Z" style="fill:#010101;"/><path d="M177.1,279.99s-.03,0-.04,0c-.91-.02-1.63-.78-1.61-1.69,.17-6.65,.06-13.4-.32-20.06-.05-.91,.64-1.69,1.55-1.74,.91-.04,1.69,.64,1.74,1.55,.38,6.75,.5,13.59,.33,20.33-.02,.9-.76,1.61-1.65,1.61Z" style="fill:#010101;"/><path d="M189.59,295.01h-22.06c-.91,0-1.65-.74-1.65-1.65s.74-1.65,1.65-1.65h20.86l3.86-11.73h-29.66c-.91,0-1.65-.74-1.65-1.65s.74-1.65,1.65-1.65h31.94c.53,0,1.02,.25,1.33,.68,.31,.43,.39,.98,.23,1.48l-4.94,15.02c-.22,.68-.85,1.13-1.56,1.13Z" style="fill:#010101;"/></g></svg>