<?xml version="1.0" encoding="utf-8"?>
<!-- Generator: Adobe Illustrator 26.3.1, SVG Export Plug-In . SVG Version: 6.00 Build 0)  -->
<svg version="1.1" id="OBJECTS" xmlns="http://www.w3.org/2000/svg" xmlns:xlink="http://www.w3.org/1999/xlink" x="0px" y="0px"
	 viewBox="0 0 178 154" style="enable-background:new 0 0 178 154;" xml:space="preserve">
<path class="st0" d="M123.7,117.7c-23.5,0-49.6-0.6-58.9-1.3c-5.4-0.4-11.5-0.8-16.9-3.4c-9.6-4.7-13.3-22.1-13.5-22.9
	c-0.6-4.4-2.1-13-3.8-23c-2.8-16.5-6-35.3-6.5-41.7c-0.1-0.8-0.2-1.8-0.3-2.7c-0.4-2.9-0.8-6.3,0.2-9.1c3.9-11,50-9.3,55.1-7.5
	c10.6,3.7,12.6,12.1,14.7,21l0.3,1.3c1.4,5.9,7.4,43.9,9,55.5c0.1,0.9-0.5,1.6-1.3,1.8c-0.9,0.1-1.6-0.5-1.8-1.3
	c-1.8-12.7-7.7-49.8-9-55.2l-0.3-1.3C88.8,19,87.1,12.1,78.1,9C72.7,7.1,29.7,6.8,27,14.6c-0.8,2.2-0.4,5-0.1,7.7
	c0.1,1,0.2,1.9,0.3,2.8c0.5,6.3,3.8,25.7,6.5,41.4c1.7,10,3.2,18.6,3.8,23c0,0.1,3.6,16.6,11.8,20.6c4.8,2.4,10.4,2.8,15.8,3.1
	c15.9,1.1,82.7,2.2,98,0c1.9-0.3,4-0.7,5.2-1.9c1.2-1.3,1.4-3.6,1.4-5.8c0-3.3-0.2-6.7-1.9-9.3c-3.4-5.4-11.3-5.8-18.5-5.4
	c-3.6,0.2-21.3,0.4-40.1,0.5c-17.9,0.2-36.4,0.4-40,0.5c-4,0.2-8.2,0.4-11.9-3.2c-2.4-2.3-3.3-5.5-4-8.1c0-0.1,0-0.1,0-0.2
	L42.3,15.9c-0.1-0.8,0.4-1.7,1.3-1.8c0.9-0.1,1.6,0.4,1.8,1.3l10.8,64.5c0.7,2.3,1.4,5,3.1,6.6c2.6,2.5,5.3,2.5,9.6,2.3
	c3.6-0.2,21.3-0.4,40.1-0.5c17.9-0.2,36.4-0.4,40-0.5c7.7-0.4,17,0.1,21.3,6.9c2.1,3.3,2.4,7.2,2.4,11c0,2.9-0.3,5.8-2.2,7.9
	c-1.9,2-4.6,2.6-7,2.9C156.9,117.3,141,117.7,123.7,117.7L123.7,117.7z"/>
<path class="st0" d="M66.1,35.1c-0.7,0-1.4-0.5-1.5-1.3l-0.9-5.1c-0.1-0.9,0.4-1.6,1.3-1.8c0.9-0.1,1.6,0.4,1.8,1.3l0.9,5.1
	c0.1,0.9-0.4,1.6-1.3,1.8C66.3,35.1,66.2,35.1,66.1,35.1L66.1,35.1z"/>
<path class="st0" d="M80.1,35.1c-0.7,0-1.4-0.5-1.5-1.3l-0.9-5.1c-0.1-0.9,0.4-1.6,1.3-1.8c0.9-0.1,1.6,0.4,1.8,1.3l0.9,5.1
	c0.1,0.9-0.4,1.6-1.3,1.8C80.3,35.1,80.2,35.1,80.1,35.1L80.1,35.1z"/>
<path class="st0" d="M69.9,61.3c-0.7,0-1.4-0.5-1.5-1.3l-0.9-5.1c-0.1-0.9,0.4-1.6,1.3-1.8c0.9-0.1,1.6,0.4,1.8,1.3l0.9,5.1
	c0.1,0.9-0.4,1.6-1.3,1.8C70.1,61.2,70,61.2,69.9,61.3L69.9,61.3z"/>
<path class="st0" d="M83.9,61.3c-0.7,0-1.4-0.5-1.5-1.3l-0.9-5.1c-0.1-0.9,0.4-1.6,1.3-1.8c0.8-0.1,1.6,0.4,1.8,1.3l0.9,5.1
	c0.1,0.9-0.4,1.6-1.3,1.8C84.1,61.2,84,61.2,83.9,61.3L83.9,61.3z"/>
<path class="st0" d="M95,117.4c-0.8,0-1.5-0.6-1.6-1.5c0-0.9,0.6-1.6,1.5-1.6c1.6-0.1,4.1-0.1,6.8-0.2c3.6-0.1,7.7-0.1,8.9-0.3
	c1.9-0.3,4-0.6,5.2-1.9c1.2-1.3,1.4-3.6,1.4-5.8c0-3.3-0.2-6.7-1.9-9.3c-3.4-5.4-11.3-5.8-18.5-5.4c-0.9,0-1.6-0.6-1.6-1.5
	c0-0.9,0.6-1.6,1.5-1.6c7.7-0.4,17,0.1,21.3,6.8c2.1,3.3,2.4,7.2,2.4,10.9c0,2.8-0.3,5.8-2.2,7.9c-1.9,2-4.6,2.5-7,2.9
	c-1.4,0.2-5.2,0.2-9.2,0.3C99.1,117.3,96.6,117.3,95,117.4C95.1,117.4,95,117.4,95,117.4L95,117.4z"/>
<path class="st0" d="M159.7,91.4c-0.2,0-0.3,0-0.5-0.1c-3.1-1-5.6-3.7-6.2-6.9c-0.6-3.1,0.4-6.1,1.4-8.6l0.5-1.2
	c0.9-2,1.7-3.9,1.9-5.9c0.2-1.9-0.5-4.4-2.3-5.3c-0.6-0.3-1.4-0.4-2.3-0.6c-2.2-0.3-4.4-0.2-6.7,0c-1.2,0.1-2.4,0.1-3.6,0.1l-4.1,0
	c-2.4,0-4.8,0-7.1,0c-10.9,0-21.8,0-32.8-0.1c-0.9,0-1.6-0.7-1.6-1.6s0.7-1.6,1.6-1.6l0,0c10.9,0,21.8,0,32.8,0.1c2.4,0,4.7,0,7.1,0
	l4.1,0c1.2,0,2.3-0.1,3.5-0.1c2.4-0.1,4.8-0.2,7.2,0.1c1.1,0.1,2.2,0.3,3.3,0.9c3.1,1.6,4.2,5.3,4,8.3c-0.2,2.5-1.2,4.7-2.1,6.8
	l-0.5,1.2c-0.9,2.1-1.7,4.6-1.2,6.8c0.4,2.1,2.1,3.9,4.1,4.6c0.8,0.3,1.3,1.1,1,1.9C161,90.9,160.4,91.4,159.7,91.4L159.7,91.4z"/>
<path class="st0" d="M150.6,51.8h-35.1c-0.5,0-0.9-0.2-1.2-0.6c-0.3-0.4-0.4-0.8-0.3-1.3l6.2-33.3c0.1-0.7,0.8-1.3,1.5-1.3h22.7
	c0.8,0,1.4,0.5,1.5,1.3l6.2,33.3c0.1,0.4,0,0.9-0.3,1.3C151.5,51.6,151,51.8,150.6,51.8L150.6,51.8z M117.3,48.7h31.4l-5.6-30.2H123
	L117.3,48.7L117.3,48.7z"/>
<path class="st0" d="M133.1,57.7c-0.8,0-1.4-0.2-1.4-0.4V49c0-0.2,0.6-0.4,1.4-0.4s1.4,0.2,1.4,0.4v8.3
	C134.6,57.5,133.9,57.7,133.1,57.7z"/>
<path class="st0" d="M48.9,147.7c-0.1,0-0.3,0-0.4-0.1c-0.8-0.2-1.3-1.1-1-1.9l9.4-31c0.2-0.8,1.1-1.3,1.9-1c0.8,0.2,1.3,1.1,1,1.9
	l-9.4,31C50.2,147.3,49.5,147.7,48.9,147.7L48.9,147.7z"/>
<path class="st0" d="M110.3,147.7c-0.7,0-1.3-0.4-1.5-1.1l-8.9-29.8c-0.2-0.8,0.2-1.7,1-1.9c0.8-0.2,1.7,0.2,1.9,1l8.9,29.8
	c0.2,0.8-0.2,1.7-1,1.9C110.6,147.7,110.4,147.7,110.3,147.7L110.3,147.7z"/>
<path class="st0" d="M100.3,147.7c-0.1,0-0.3,0-0.5-0.1c-0.8-0.3-1.3-1.1-1-1.9l9.4-29.8c0.3-0.8,1.1-1.3,1.9-1
	c0.8,0.3,1.3,1.1,1,1.9l-9.4,29.8C101.5,147.3,100.9,147.7,100.3,147.7L100.3,147.7z"/>
<path class="st0" d="M161.7,147.7c-0.7,0-1.3-0.4-1.5-1.1l-8.9-29.8c-0.2-0.8,0.2-1.7,1-1.9c0.8-0.2,1.7,0.2,1.9,1l8.9,29.8
	c0.2,0.8-0.2,1.7-1,1.9C162,147.7,161.8,147.7,161.7,147.7L161.7,147.7z"/>
<path class="st0" d="M24.8,124.4c-4.7,0-9.4-2.1-12.8-5.8c-3.4-3.7-7.3-10.9-6-23.7c1.2-12.4,9.2-25.5,16-32.6
	c0.3-0.3,0.7-0.5,1.2-0.5c0.4,0,0.8,0.2,1.1,0.5l4.5,5.2c0.6,0.6,0.5,1.6-0.2,2.2c-0.6,0.6-1.6,0.5-2.2-0.2l-3.4-3.9
	c-6.2,6.9-12.9,18.6-14,29.5c-1.1,11.7,2.2,18,5.2,21.3c2.8,3.1,6.6,4.8,10.5,4.8c0.1,0,0.1,0,0.2,0c5.6-0.1,10.8-6.7,12.6-11.4
	c0.3-0.8,1.2-1.2,2-0.9c0.8,0.3,1.2,1.2,0.9,2c-2.1,5.3-7.9,13.3-15.4,13.4C24.9,124.4,24.9,124.4,24.8,124.4L24.8,124.4z"/>
<path class="st0" d="M25.2,133.5L25.2,133.5c-0.9,0-1.6-0.7-1.6-1.6c0.2-6.3,0.1-12.6-0.3-18.9c-0.1-0.9,0.6-1.6,1.5-1.6
	c0.8,0,1.6,0.6,1.6,1.5c0.4,6.4,0.5,12.8,0.3,19.2C26.8,132.9,26.1,133.5,25.2,133.5L25.2,133.5z"/>
<path class="st0" d="M37,147.7H16.2c-0.9,0-1.6-0.7-1.6-1.6s0.7-1.6,1.6-1.6h19.7l3.6-11.1h-28c-0.9,0-1.6-0.7-1.6-1.6
	s0.7-1.6,1.6-1.6h30.1c0.5,0,1,0.2,1.3,0.6s0.4,0.9,0.2,1.4l-4.7,14.2C38.3,147.3,37.7,147.7,37,147.7L37,147.7z"/>
</svg>
